<?xml version="1.0" encoding="UTF-8" standalone="no"?>
<!DOCTYPE svg PUBLIC "-//W3C//DTD SVG 1.1//EN" "http://www.w3.org/Graphics/SVG/1.1/DTD/svg11.dtd">
<svg width="100%" height="100%" viewBox="0 0 424 133" version="1.1" xmlns="http://www.w3.org/2000/svg" xmlns:xlink="http://www.w3.org/1999/xlink" xml:space="preserve" xmlns:serif="http://www.serif.com/" style="fill-rule:evenodd;clip-rule:evenodd;stroke-linejoin:round;stroke-miterlimit:1.41421;">
    <g id="Logo">
        <path d="M65.939,0.241C65.983,0.141 65.923,0.05 65.839,0.016L20.682,38.612L37.037,61.724C38.529,60.451 39.741,58.856 40.568,57.032" style="fill:rgb(188,188,188);fill-rule:nonzero;"/>
        <path d="M137.018,42.466L68.17,0.053C68.08,-0.004 67.985,-0.004 67.899,0.021L97.602,38.773L136.836,43.013C137.147,43.05 137.289,42.634 137.018,42.466" style="fill:rgb(188,188,188);fill-rule:nonzero;"/>
        <path d="M19.271,20.372C21.123,20.421 22.945,20.023 24.608,19.213L62.913,0.582C62.997,0.541 63.037,0.442 63.008,0.357C62.979,0.27 62.882,0.219 62.801,0.25L1.276,19.428C1.031,19.503 1.076,19.851 1.326,19.859" style="fill:rgb(188,188,188);fill-rule:nonzero;"/>
        <path d="M2.58,70.36C2.229,70.973 2.789,71.7 3.467,71.529L31.56,64.549C33.605,64.043 35.467,63.063 37.037,61.724L20.684,38.612" style="fill:rgb(97,166,89);fill-rule:nonzero;"/>
        <path d="M67.643,0.306L62.16,62.481C62.004,64.298 62.472,66.042 63.396,67.495L97.601,38.773L67.898,0.021C67.769,0.057 67.664,0.158 67.643,0.306" style="fill:rgb(97,166,89);fill-rule:nonzero;"/>
        <path d="M70.816,0.098C70.729,0.067 70.634,0.113 70.61,0.202C70.572,0.287 70.619,0.385 70.698,0.429L96.844,13.695C98.462,14.519 100.197,15.1 101.985,15.421L130.958,20.554C131.11,20.585 131.243,20.49 131.274,20.348C131.319,20.201 131.237,20.053 131.097,20.012L100.278,8.61" style="fill:rgb(97,166,89);fill-rule:nonzero;"/>
        <path d="M65.691,0.019L0.155,39.392C-0.128,39.561 0.005,39.995 0.333,39.97L20.684,38.612L65.84,0.016C65.798,-0.004 65.747,-0.007 65.691,0.019" style="fill:rgb(255,210,0);fill-rule:nonzero;"/>
        <path d="M67.879,70.852L113.469,84.216C114.203,84.429 114.857,83.722 114.608,83.01L97.601,38.772L63.397,67.495C64.413,69.071 65.972,70.299 67.879,70.852" style="fill:rgb(255,210,0);fill-rule:nonzero;"/>
        <path d="M108.973,19.474C108.93,19.631 109.002,19.797 109.147,19.873L153.006,42.131C153.135,42.197 153.291,42.128 153.332,41.986C153.383,41.817 153.336,41.634 153.22,41.514L142.221,29.614C141.008,28.295 139.444,27.347 137.714,26.889L109.312,19.274C109.16,19.241 109.011,19.324 108.973,19.474" style="fill:rgb(255,210,0);fill-rule:nonzero;"/>
        <path d="M205.129,50.842C204.996,50.627 204.681,50.627 204.541,50.842L183.68,82.595C183.544,82.787 183.684,83.026 183.924,83.026L191.128,83.026C191.462,83.026 191.763,82.869 191.952,82.595L197.023,74.88L212.655,74.88L217.721,82.595C217.898,82.869 218.206,83.026 218.532,83.026L225.756,83.026C225.985,83.026 226.133,82.787 225.999,82.595M200.49,69.596L204.835,62.98L209.19,69.596L200.49,69.596Z" style="fill:white;fill-rule:nonzero;"/>
        <path d="M326.19,50.842C326.042,50.627 325.741,50.627 325.605,50.842L304.726,82.595C304.594,82.787 304.744,83.026 304.966,83.026L312.192,83.026C312.524,83.026 312.824,82.869 313.008,82.595L318.073,74.88L333.705,74.88L338.77,82.595C338.946,82.869 339.267,83.026 339.602,83.026L346.815,83.026C347.047,83.026 347.174,82.787 347.047,82.595M321.551,69.596L325.892,62.98L330.232,69.596L321.551,69.596Z" style="fill:white;fill-rule:nonzero;"/>
        <path d="M407.818,57.555L423.008,57.555C423.304,57.555 423.542,57.318 423.542,57.015L423.542,52.79C423.542,52.504 423.304,52.267 423.008,52.267L404.484,52.267C396.006,52.267 389.097,59.15 389.097,67.663C389.097,76.144 396.006,83.026 404.484,83.026L423.008,83.026C423.32,83.026 423.542,82.796 423.542,82.492L423.542,78.306C423.542,78.016 423.304,77.778 423.008,77.778L407.818,77.778C402.23,77.778 397.691,73.275 397.691,67.672C397.69,62.076 402.229,57.555 407.818,57.555" style="fill:white;fill-rule:nonzero;"/>
        <path d="M173.525,52.267C173.19,52.267 172.864,52.387 172.6,52.615L153.355,69.674L153.355,52.789C153.355,52.503 153.108,52.267 152.814,52.267L145.798,52.267C145.506,52.267 145.274,52.503 145.274,52.789L145.274,84.481C145.274,84.689 145.508,84.799 145.665,84.666L161.944,70.526L171.883,82.626C172.11,82.882 172.424,83.026 172.761,83.026L181.77,83.026C181.971,83.026 182.083,82.787 181.958,82.638L167.391,65.86L182.598,52.615C182.716,52.501 182.647,52.267 182.46,52.267" style="fill:white;fill-rule:nonzero;"/>
        <path d="M377.12,70.157C378.672,70.002 379.936,69.72 381.128,69.239C384.137,67.974 385.84,65.084 385.84,61.312C385.84,58.823 385.018,56.724 383.43,55.099C381.44,53.036 378.864,52.26 374.337,52.26L350.781,52.26C350.478,52.26 350.25,52.501 350.25,52.785L350.25,82.507C350.25,82.794 350.478,83.026 350.781,83.026L357.784,83.026C358.08,83.026 358.319,82.794 358.319,82.507L358.319,70.299L368.621,70.299L376.945,82.6C377.134,82.865 377.439,83.026 377.769,83.026L385.969,83.026C386.193,83.026 386.319,82.794 386.177,82.612M371.65,65.037L358.845,65.037C358.555,65.037 358.319,64.8 358.319,64.506L358.319,58.078C358.319,57.787 358.555,57.555 358.845,57.555L372.901,57.555C376.31,57.555 377.985,58.733 377.985,61.225C377.985,64.028 376.31,65.037 371.65,65.037" style="fill:white;fill-rule:nonzero;"/>
        <path d="M253.181,52.26L229.63,52.26C229.326,52.26 229.095,52.501 229.095,52.785L229.095,82.512C229.095,82.799 229.326,83.026 229.63,83.026L236.643,83.026C236.946,83.026 237.177,82.799 237.177,82.512L237.177,70.284L253.181,70.284C256.167,70.284 258.118,69.982 259.956,69.239C262.969,67.974 264.67,65.084 264.67,61.312C264.67,58.823 263.849,56.724 262.269,55.099C260.293,53.036 257.689,52.26 253.181,52.26M250.492,65.037L237.71,65.037C237.412,65.037 237.177,64.8 237.177,64.506L237.177,58.078C237.177,57.787 237.412,57.555 237.71,57.555L251.744,57.555C255.16,57.555 256.82,58.733 256.82,61.225C256.82,64.028 255.16,65.037 250.492,65.037" style="fill:white;fill-rule:nonzero;"/>
        <path d="M291.784,65.003L281.664,65.003C278.242,65.003 276.577,63.816 276.577,61.321C276.577,58.525 278.242,57.522 282.901,57.522L300.09,57.522C300.379,57.522 300.623,57.278 300.623,56.994L300.623,52.79C300.623,52.504 300.379,52.267 300.09,52.267L280.218,52.267C277.211,52.267 275.29,52.572 273.431,53.317C270.426,54.583 268.725,57.472 268.725,61.237C268.725,63.735 269.544,65.822 271.122,67.459C273.107,69.511 275.702,70.299 280.218,70.299L290.361,70.299C293.783,70.299 295.437,71.476 295.437,73.982C295.437,76.775 293.783,77.771 289.113,77.771L269.78,77.771C269.498,77.771 269.261,78.026 269.261,78.306L269.261,82.512C269.261,82.799 269.498,83.026 269.78,83.026L291.783,83.026C294.788,83.026 296.73,82.726 298.582,81.978C301.568,80.71 303.278,77.83 303.278,74.063C303.278,71.562 302.453,69.476 300.884,67.843C298.896,65.789 296.318,65.003 291.784,65.003" style="fill:white;fill-rule:nonzero;"/>
        <path d="M0.017,119.302L1.255,119.302L1.255,125.886L7.583,119.302L9.186,119.302L4.47,124.123L9.389,130.322L7.844,130.322L3.599,124.984L1.255,127.367L1.255,130.322L0.017,130.322" style="fill:white;fill-rule:nonzero;"/>
        <path d="M11.161,120.408L11.161,119.069L12.548,119.069L12.548,120.408L11.161,120.408ZM11.242,130.322L11.242,122.18L12.453,122.18L12.453,130.322L11.242,130.322Z" style="fill:white;fill-rule:nonzero;"/>
        <path d="M15.278,122.18L16.489,122.18L16.489,123.6C17.024,122.712 17.875,122.004 19.267,122.004C21.244,122.004 22.385,123.337 22.385,125.265L22.385,130.322L21.174,130.322L21.174,125.566C21.174,124.056 20.36,123.11 18.925,123.11C17.525,123.11 16.489,124.135 16.489,125.661L16.489,130.322L15.278,130.322" style="fill:white;fill-rule:nonzero;"/>
        <path d="M24.883,131.74L25.432,130.794C26.359,131.473 27.395,131.834 28.56,131.834C30.352,131.834 31.522,130.843 31.522,128.936L31.522,127.98C30.816,128.922 29.823,129.692 28.318,129.692C26.373,129.692 24.504,128.229 24.504,125.886L24.504,125.849C24.504,123.474 26.383,122.004 28.318,122.004C29.851,122.004 30.849,122.764 31.508,123.648L31.508,122.18L32.719,122.18L32.719,128.907C32.719,130.166 32.34,131.127 31.678,131.782C30.952,132.508 29.866,132.873 28.579,132.873C27.225,132.873 25.961,132.494 24.883,131.74M31.549,125.864L31.549,125.841C31.549,124.163 30.107,123.076 28.56,123.076C27.012,123.076 25.744,124.151 25.744,125.822L25.744,125.849C25.744,127.484 27.05,128.624 28.56,128.624C30.107,128.624 31.549,127.502 31.549,125.864" style="fill:white;fill-rule:nonzero;"/>
        <path d="M44.437,119.22L45.6,119.22L50.622,130.322L49.281,130.322L47.994,127.412L41.999,127.412L40.689,130.322L39.411,130.322M47.502,126.29L44.999,120.67L42.482,126.29L47.502,126.29Z" style="fill:white;fill-rule:nonzero;"/>
        <path d="M53.805,128.761L53.805,130.322L52.594,130.322L52.594,118.828L53.805,118.828L53.805,123.819C54.463,122.845 55.429,122.004 56.924,122.004C58.874,122.004 60.813,123.547 60.813,126.229L60.813,126.261C60.813,128.922 58.888,130.492 56.924,130.492C55.41,130.492 54.434,129.673 53.805,128.761M59.569,126.274L59.569,126.247C59.569,124.324 58.243,123.094 56.7,123.094C55.196,123.094 53.758,124.367 53.758,126.229L53.758,126.261C53.758,128.145 55.196,129.411 56.7,129.411C58.281,129.411 59.569,128.239 59.569,126.274" style="fill:white;fill-rule:nonzero;"/>
        <path d="M62.573,126.274L62.573,126.246C62.573,123.578 64.518,122.004 66.467,122.004C67.982,122.004 68.951,122.832 69.581,123.737L69.581,118.828L70.793,118.828L70.793,130.322L69.581,130.322L69.581,128.682C68.924,129.659 67.958,130.492 66.467,130.492C64.518,130.492 62.573,128.954 62.573,126.274M69.632,126.261L69.632,126.229C69.632,124.354 68.194,123.094 66.685,123.094C65.109,123.094 63.817,124.26 63.817,126.229L63.817,126.261C63.817,128.181 65.138,129.411 66.685,129.411C68.194,129.411 69.632,128.136 69.632,126.261" style="fill:white;fill-rule:nonzero;"/>
        <path d="M73.382,127.236L73.382,122.18L74.592,122.18L74.592,126.939C74.592,128.444 75.406,129.391 76.839,129.391C78.226,129.391 79.282,128.365 79.282,126.843L79.282,122.18L80.479,122.18L80.479,130.322L79.282,130.322L79.282,128.907C78.733,129.788 77.895,130.492 76.494,130.492C74.53,130.492 73.382,129.168 73.382,127.236" style="fill:white;fill-rule:nonzero;"/>
        <rect x="83.314" y="118.828" width="1.221" height="11.494" style="fill:white;"/>
        <rect x="87.459" y="118.828" width="1.211" height="11.494" style="fill:white;"/>
        <path d="M90.871,127.961L90.871,127.931C90.871,126.176 92.291,125.265 94.353,125.265C95.39,125.265 96.119,125.41 96.842,125.611L96.842,125.363C96.842,123.914 95.963,123.156 94.434,123.156C93.474,123.156 92.722,123.398 91.959,123.738L91.604,122.746C92.495,122.341 93.365,122.053 94.562,122.053C95.708,122.053 96.606,122.371 97.188,122.958C97.756,123.522 98.035,124.307 98.035,125.346L98.035,130.322L96.842,130.322L96.842,129.11C96.276,129.832 95.348,130.492 93.914,130.492C92.385,130.492 90.871,129.626 90.871,127.961M96.856,127.326L96.856,126.573C96.256,126.4 95.47,126.229 94.483,126.229C92.968,126.229 92.101,126.891 92.101,127.865L92.101,127.899C92.101,128.922 93.048,129.52 94.155,129.52C95.645,129.52 96.856,128.623 96.856,127.326" style="fill:white;fill-rule:nonzero;"/>
        <path d="M100.614,118.827L101.82,118.827L101.82,123.599C102.355,122.713 103.207,122.004 104.6,122.004C106.577,122.004 107.721,123.337 107.721,125.265L107.721,130.321L106.506,130.321L106.506,125.566C106.506,124.057 105.691,123.11 104.258,123.11C102.857,123.11 101.82,124.135 101.82,125.661L101.82,130.321L100.614,130.321" style="fill:white;fill-rule:nonzero;"/>
        <path d="M115.229,119.302L119.357,119.302C121.846,119.302 123.483,120.62 123.483,122.798L123.483,122.832C123.483,125.204 121.496,126.435 119.153,126.435L116.48,126.435L116.48,130.322L115.229,130.322M119.201,125.3C121.028,125.3 122.224,124.323 122.224,122.875L122.224,122.845C122.224,121.269 121.045,120.451 119.261,120.451L116.48,120.451L116.48,125.3L119.201,125.3Z" style="fill:white;fill-rule:nonzero;"/>
        <path d="M129.063,129.451C130.184,129.451 130.969,128.999 131.637,128.307L132.388,128.982C131.566,129.894 130.571,130.512 129.028,130.512C126.79,130.512 124.974,128.793 124.974,126.261C124.974,123.898 126.62,122.005 128.872,122.005C131.276,122.005 132.669,123.931 132.669,126.321C132.669,126.435 132.669,126.561 132.648,126.744L126.194,126.744C126.369,128.463 127.633,129.451 129.063,129.451M131.438,125.769C131.302,124.293 130.45,123.03 128.84,123.03C127.441,123.03 126.37,124.198 126.195,125.769L131.438,125.769Z" style="fill:white;fill-rule:nonzero;"/>
        <path d="M135.219,128.167L135.219,123.252L134.088,123.252L134.088,122.179L135.219,122.179L135.219,119.727L136.441,119.727L136.441,122.179L139.014,122.179L139.014,123.252L136.441,123.252L136.441,128.006C136.441,128.999 136.984,129.359 137.804,129.359C138.214,129.359 138.565,129.281 138.981,129.077L138.981,130.119C138.565,130.338 138.106,130.463 137.519,130.463C136.212,130.463 135.219,129.816 135.219,128.167" style="fill:white;fill-rule:nonzero;"/>
        <path d="M141.158,122.18L142.374,122.18L142.374,124.307C142.965,122.958 144.148,121.979 145.69,122.04L145.69,123.352L145.597,123.352C143.822,123.352 142.374,124.621 142.374,127.075L142.374,130.322L141.158,130.322" style="fill:white;fill-rule:nonzero;"/>
        <path d="M146.684,126.29L146.684,126.261C146.684,123.961 148.478,122.004 150.938,122.004C153.371,122.004 155.174,123.931 155.174,126.229L155.174,126.261C155.174,128.561 153.366,130.511 150.901,130.511C148.459,130.511 146.684,128.59 146.684,126.29M153.928,126.29L153.928,126.261C153.928,124.514 152.617,123.076 150.901,123.076C149.14,123.076 147.933,124.514 147.933,126.229L147.933,126.261C147.933,128.006 149.22,129.422 150.938,129.422C152.703,129.422 153.928,128.006 153.928,126.29" style="fill:white;fill-rule:nonzero;"/>
        <rect x="157.479" y="118.828" width="1.211" height="11.494" style="fill:white;"/>
        <path d="M165.087,129.451C166.208,129.451 167.003,128.999 167.656,128.307L168.413,128.982C167.594,129.894 166.61,130.512 165.058,130.512C162.825,130.512 161,128.793 161,126.261C161,123.898 162.654,122.005 164.907,122.005C167.311,122.005 168.701,123.931 168.701,126.321C168.701,126.435 168.701,126.561 168.682,126.744L162.228,126.744C162.399,128.463 163.662,129.451 165.087,129.451M167.471,125.769C167.326,124.293 166.474,123.03 164.869,123.03C163.474,123.03 162.399,124.198 162.228,125.769L167.471,125.769Z" style="fill:white;fill-rule:nonzero;"/>
        <path d="M170.699,127.236L170.699,122.18L171.915,122.18L171.915,126.939C171.915,128.444 172.728,129.391 174.163,129.391C175.548,129.391 176.604,128.365 176.604,126.843L176.604,122.18L177.802,122.18L177.802,130.322L176.604,130.322L176.604,128.907C176.051,129.788 175.217,130.492 173.818,130.492C171.849,130.492 170.699,129.168 170.699,127.236" style="fill:white;fill-rule:nonzero;"/>
        <path d="M180.523,122.18L181.734,122.18L181.734,123.548C182.274,122.747 183.002,122.004 184.365,122.004C185.691,122.004 186.537,122.712 186.979,123.63C187.564,122.732 188.426,122.004 189.845,122.004C191.719,122.004 192.869,123.271 192.869,125.278L192.869,130.322L191.652,130.322L191.652,125.566C191.652,123.995 190.872,123.11 189.558,123.11C188.321,123.11 187.294,124.027 187.294,125.627L187.294,130.322L186.102,130.322L186.102,125.532C186.102,124.012 185.294,123.11 184.006,123.11C182.714,123.11 181.734,124.18 181.734,125.675L181.734,130.322L180.523,130.322" style="fill:white;fill-rule:nonzero;"/>
        <path d="M199.702,128.706L200.478,127.804C201.623,128.841 202.731,129.359 204.254,129.359C205.741,129.359 206.715,128.574 206.715,127.485L206.715,127.453C206.715,126.435 206.162,125.849 203.847,125.363C201.31,124.811 200.142,123.995 200.142,122.18L200.142,122.149C200.142,120.419 201.68,119.142 203.767,119.142C205.372,119.142 206.524,119.601 207.642,120.503L206.914,121.459C205.892,120.62 204.874,120.261 203.738,120.261C202.305,120.261 201.386,121.048 201.386,122.04L201.386,122.072C201.386,123.11 201.959,123.694 204.386,124.211C206.838,124.745 207.973,125.641 207.973,127.326L207.973,127.367C207.973,129.248 206.398,130.477 204.211,130.477C202.46,130.477 201.031,129.893 199.702,128.706" style="fill:white;fill-rule:nonzero;"/>
        <path d="M210.645,128.167L210.645,123.252L209.515,123.252L209.515,122.179L210.645,122.179L210.645,119.727L211.867,119.727L211.867,122.179L214.446,122.179L214.446,123.252L211.867,123.252L211.867,128.006C211.867,128.999 212.416,129.359 213.234,129.359C213.636,129.359 213.991,129.281 214.417,129.077L214.417,130.119C213.991,130.338 213.528,130.463 212.945,130.463C211.64,130.463 210.645,129.816 210.645,128.167" style="fill:white;fill-rule:nonzero;"/>
        <path d="M216.467,127.236L216.467,122.18L217.674,122.18L217.674,126.939C217.674,128.444 218.489,129.391 219.926,129.391C221.309,129.391 222.363,128.365 222.363,126.843L222.363,122.18L223.56,122.18L223.56,130.322L222.363,130.322L222.363,128.907C221.814,129.788 220.977,130.492 219.58,130.492C217.613,130.492 216.467,129.168 216.467,127.236" style="fill:white;fill-rule:nonzero;"/>
        <path d="M225.816,126.274L225.816,126.246C225.816,123.578 227.752,122.004 229.711,122.004C231.216,122.004 232.19,122.832 232.825,123.737L232.825,118.828L234.037,118.828L234.037,130.322L232.825,130.322L232.825,128.682C232.158,129.659 231.203,130.492 229.711,130.492C227.753,130.492 225.816,128.954 225.816,126.274M232.872,126.261L232.872,126.229C232.872,124.354 231.44,123.094 229.921,123.094C228.349,123.094 227.062,124.26 227.062,126.229L227.062,126.261C227.062,128.181 228.383,129.411 229.921,129.411C231.439,129.411 232.872,128.136 232.872,126.261" style="fill:white;fill-rule:nonzero;"/>
        <path d="M236.773,120.408L236.773,119.069L238.16,119.069L238.16,120.408L236.773,120.408ZM236.858,130.322L236.858,122.18L238.074,122.18L238.074,130.322L236.858,130.322Z" style="fill:white;fill-rule:nonzero;"/>
        <path d="M244.481,129.451C245.587,129.451 246.383,128.999 247.039,128.307L247.796,128.982C246.984,129.894 245.984,130.512 244.441,130.512C242.213,130.512 240.387,128.793 240.387,126.261C240.387,123.898 242.033,122.005 244.281,122.005C246.695,122.005 248.081,123.931 248.081,126.321C248.081,126.435 248.081,126.561 248.067,126.744L241.607,126.744C241.786,128.463 243.047,129.451 244.481,129.451M246.85,125.769C246.714,124.293 245.867,123.03 244.257,123.03C242.852,123.03 241.786,124.198 241.607,125.769L246.85,125.769Z" style="fill:white;fill-rule:nonzero;"/>
        <path d="M249.529,129.28L250.151,128.414C251.025,129.078 252,129.451 252.97,129.451C253.94,129.451 254.645,128.954 254.645,128.166L254.645,128.136C254.645,127.31 253.694,126.998 252.619,126.699C251.348,126.337 249.927,125.898 249.927,124.404L249.927,124.367C249.927,122.973 251.092,122.04 252.691,122.04C253.694,122.04 254.787,122.386 255.625,122.94L255.072,123.853C254.314,123.361 253.448,123.063 252.667,123.063C251.706,123.063 251.092,123.568 251.092,124.246L251.092,124.277C251.092,125.047 252.104,125.346 253.187,125.675C254.446,126.054 255.799,126.546 255.799,128.006L255.799,128.041C255.799,129.579 254.526,130.478 252.899,130.478C251.74,130.478 250.447,130.024 249.529,129.28" style="fill:white;fill-rule:nonzero;"/>
        <path d="M262.165,127.961L262.165,127.931C262.165,126.176 263.579,125.265 265.638,125.265C266.678,125.265 267.408,125.41 268.13,125.611L268.13,125.363C268.13,123.914 267.242,123.156 265.723,123.156C264.762,123.156 264.001,123.398 263.244,123.738L262.889,122.746C263.787,122.341 264.654,122.053 265.845,122.053C266.996,122.053 267.889,122.371 268.476,122.958C269.041,123.522 269.323,124.307 269.323,125.346L269.323,130.322L268.13,130.322L268.13,129.11C267.558,129.832 266.641,130.492 265.203,130.492C263.669,130.492 262.165,129.626 262.165,127.961M268.14,127.326L268.14,126.573C267.544,126.4 266.758,126.229 265.77,126.229C264.256,126.229 263.385,126.891 263.385,127.865L263.385,127.899C263.385,128.922 264.337,129.52 265.435,129.52C266.933,129.52 268.14,128.623 268.14,127.326" style="fill:white;fill-rule:nonzero;"/>
        <path d="M271.897,122.18L273.104,122.18L273.104,123.6C273.638,122.712 274.49,122.004 275.887,122.004C277.86,122.004 279.015,123.337 279.015,125.265L279.015,130.322L277.794,130.322L277.794,125.566C277.794,124.056 276.98,123.11 275.548,123.11C274.149,123.11 273.104,124.135 273.104,125.661L273.104,130.322L271.897,130.322" style="fill:white;fill-rule:nonzero;"/>
        <path d="M281.119,126.274L281.119,126.246C281.119,123.578 283.06,122.004 285.009,122.004C286.517,122.004 287.494,122.832 288.127,123.737L288.127,118.828L289.34,118.828L289.34,130.322L288.127,130.322L288.127,128.682C287.468,129.659 286.505,130.492 285.009,130.492C283.06,130.492 281.119,128.954 281.119,126.274M288.171,126.261L288.171,126.229C288.171,124.354 286.738,123.094 285.228,123.094C283.662,123.094 282.365,124.26 282.365,126.229L282.365,126.261C282.365,128.181 283.685,129.411 285.228,129.411C286.737,129.411 288.171,128.136 288.171,126.261" style="fill:white;fill-rule:nonzero;"/>
        <path d="M296.976,119.302L301.712,119.302C303.066,119.302 304.16,119.713 304.846,120.408C305.38,120.937 305.697,121.71 305.697,122.575L305.697,122.607C305.697,124.434 304.443,125.5 302.706,125.822L306.1,130.322L304.571,130.322L301.372,126.039L298.222,126.039L298.222,130.322L296.976,130.322M301.609,124.925C303.267,124.925 304.443,124.071 304.443,122.656L304.443,122.626C304.443,121.268 303.397,120.451 301.619,120.451L298.222,120.451L298.222,124.925L301.609,124.925Z" style="fill:white;fill-rule:nonzero;"/>
        <path d="M311.588,129.451C312.711,129.451 313.497,128.999 314.155,128.307L314.912,128.982C314.097,129.894 313.099,130.512 311.557,130.512C309.323,130.512 307.501,128.793 307.501,126.261C307.501,123.898 309.148,122.005 311.405,122.005C313.805,122.005 315.189,123.931 315.189,126.321C315.189,126.435 315.189,126.561 315.182,126.744L308.727,126.744C308.888,128.463 310.161,129.451 311.588,129.451M313.97,125.769C313.828,124.293 312.977,123.03 311.372,123.03C309.967,123.03 308.888,124.198 308.727,125.769L313.97,125.769Z" style="fill:white;fill-rule:nonzero;"/>
        <path d="M316.638,129.28L317.264,128.414C318.144,129.078 319.122,129.451 320.073,129.451C321.05,129.451 321.759,128.954 321.759,128.166L321.759,128.136C321.759,127.31 320.808,126.998 319.733,126.699C318.461,126.337 317.041,125.898 317.041,124.404L317.041,124.367C317.041,122.973 318.21,122.04 319.818,122.04C320.808,122.04 321.911,122.386 322.742,122.94L322.19,123.853C321.431,123.361 320.567,123.063 319.781,123.063C318.817,123.063 318.21,123.568 318.21,124.246L318.21,124.277C318.21,125.047 319.217,125.346 320.297,125.675C321.56,126.054 322.908,126.546 322.908,128.006L322.908,128.041C322.908,129.579 321.64,130.478 320.013,130.478C318.849,130.478 317.561,130.024 316.638,129.28" style="fill:white;fill-rule:nonzero;"/>
        <path d="M328.751,129.451C329.869,129.451 330.66,128.999 331.316,128.307L332.069,128.982C331.255,129.894 330.266,130.512 328.722,130.512C326.489,130.512 324.663,128.793 324.663,126.261C324.663,123.898 326.314,122.005 328.567,122.005C330.976,122.005 332.368,123.931 332.368,126.321C332.368,126.435 332.368,126.561 332.343,126.744L325.884,126.744C326.064,128.463 327.318,129.451 328.751,129.451M331.133,125.769C330.992,124.293 330.145,123.03 328.54,123.03C327.135,123.03 326.064,124.198 325.885,125.769L331.133,125.769Z" style="fill:white;fill-rule:nonzero;"/>
        <path d="M333.872,127.961L333.872,127.931C333.872,126.176 335.297,125.265 337.355,125.265C338.397,125.265 339.116,125.41 339.844,125.611L339.844,125.363C339.844,123.914 338.96,123.156 337.431,123.156C336.47,123.156 335.715,123.398 334.961,123.738L334.601,122.746C335.496,122.341 336.362,122.053 337.559,122.053C338.708,122.053 339.607,122.371 340.181,122.958C340.753,123.522 341.032,124.307 341.032,125.346L341.032,130.322L339.844,130.322L339.844,129.11C339.272,129.832 338.349,130.492 336.915,130.492C335.387,130.492 333.872,129.626 333.872,127.961M339.859,127.326L339.859,126.573C339.258,126.4 338.472,126.229 337.478,126.229C335.974,126.229 335.103,126.891 335.103,127.865L335.103,127.899C335.103,128.922 336.044,129.52 337.147,129.52C338.643,129.52 339.859,128.623 339.859,127.326" style="fill:white;fill-rule:nonzero;"/>
        <path d="M343.606,122.18L344.818,122.18L344.818,124.307C345.414,122.958 346.597,121.979 348.139,122.04L348.139,123.352L348.044,123.352C346.27,123.352 344.818,124.621 344.818,127.075L344.818,130.322L343.606,130.322" style="fill:white;fill-rule:nonzero;"/>
        <path d="M349.138,126.29L349.138,126.261C349.138,123.961 350.927,122.004 353.303,122.004C354.85,122.004 355.806,122.656 356.569,123.456L355.758,124.308C355.116,123.629 354.395,123.076 353.287,123.076C351.636,123.076 350.373,124.483 350.373,126.229L350.373,126.261C350.373,128.017 351.67,129.422 353.363,129.422C354.405,129.422 355.21,128.907 355.852,128.212L356.634,128.936C355.806,129.848 354.83,130.511 353.303,130.511C350.926,130.511 349.138,128.573 349.138,126.29" style="fill:white;fill-rule:nonzero;"/>
        <path d="M358.63,118.827L359.842,118.827L359.842,123.599C360.38,122.713 361.227,122.004 362.624,122.004C364.587,122.004 365.743,123.337 365.743,125.265L365.743,130.321L364.53,130.321L364.53,125.566C364.53,124.057 363.721,123.11 362.282,123.11C360.887,123.11 359.842,124.135 359.842,125.661L359.842,130.321L358.63,130.321" style="fill:white;fill-rule:nonzero;"/>
        <path d="M372.763,124.842L372.763,124.811C372.763,121.697 375.096,119.116 378.342,119.116C380.34,119.116 381.542,119.82 382.649,120.857L381.793,121.776C380.87,120.891 379.824,120.261 378.328,120.261C375.888,120.261 374.059,122.249 374.059,124.781L374.059,124.811C374.059,127.366 375.897,129.359 378.328,129.359C379.839,129.359 380.827,128.775 381.883,127.771L382.7,128.574C381.552,129.735 380.297,130.512 378.296,130.512C375.111,130.512 372.763,128.006 372.763,124.842" style="fill:white;fill-rule:nonzero;"/>
        <path d="M388.105,129.451C389.223,129.451 390.008,128.999 390.675,128.307L391.424,128.982C390.614,129.894 389.625,130.512 388.082,130.512C385.84,130.512 384.013,128.793 384.013,126.261C384.013,123.898 385.67,122.005 387.917,122.005C390.325,122.005 391.712,123.931 391.712,126.321C391.712,126.435 391.712,126.561 391.693,126.744L385.244,126.744C385.423,128.463 386.681,129.451 388.105,129.451M390.481,125.769C390.339,124.293 389.492,123.03 387.884,123.03C386.482,123.03 385.423,124.198 385.244,125.769L390.481,125.769Z" style="fill:white;fill-rule:nonzero;"/>
        <path d="M393.841,122.18L395.052,122.18L395.052,123.6C395.592,122.712 396.438,122.004 397.84,122.004C399.802,122.004 400.958,123.337 400.958,125.265L400.958,130.322L399.742,130.322L399.742,125.566C399.742,124.056 398.924,123.11 397.493,123.11C396.093,123.11 395.052,124.135 395.052,125.661L395.052,130.322L393.841,130.322" style="fill:white;fill-rule:nonzero;"/>
        <path d="M403.963,128.167L403.963,123.252L402.827,123.252L402.827,122.179L403.963,122.179L403.963,119.727L405.17,119.727L405.17,122.179L407.758,122.179L407.758,123.252L405.17,123.252L405.17,128.006C405.17,128.999 405.728,129.359 406.547,129.359C406.959,129.359 407.3,129.281 407.721,129.077L407.721,130.119C407.3,130.338 406.844,130.463 406.268,130.463C404.96,130.463 403.963,129.816 403.963,128.167" style="fill:white;fill-rule:nonzero;"/>
        <path d="M413.25,129.451C414.377,129.451 415.162,128.999 415.824,128.307L416.578,128.982C415.763,129.894 414.77,130.512 413.223,130.512C410.989,130.512 409.168,128.793 409.168,126.261C409.168,123.898 410.819,122.005 413.066,122.005C415.474,122.005 416.86,123.931 416.86,126.321C416.86,126.435 416.86,126.561 416.842,126.744L410.394,126.744C410.568,128.463 411.827,129.451 413.25,129.451M415.635,125.769C415.484,124.293 414.646,123.03 413.039,123.03C411.632,123.03 410.568,124.198 410.394,125.769L415.635,125.769Z" style="fill:white;fill-rule:nonzero;"/>
        <path d="M418.987,122.18L420.198,122.18L420.198,124.307C420.804,122.958 421.982,121.979 423.525,122.04L423.525,123.352L423.435,123.352C421.651,123.352 420.198,124.621 420.198,127.075L420.198,130.322L418.987,130.322" style="fill:white;fill-rule:nonzero;"/>
        <rect x="3.854" y="99.332" width="2.229" height="1.898" style="fill:white;"/>
        <rect x="0.613" y="99.332" width="2.224" height="1.898" style="fill:white;"/>
        <rect x="26.251" y="111.085" width="2.229" height="1.894" style="fill:white;"/>
        <rect x="23.005" y="111.085" width="2.229" height="1.894" style="fill:white;"/>
        <path d="M33.94,106.984C33.94,107.632 33.58,107.975 32.998,107.975L30.036,107.975C29.056,107.975 28.46,107.348 28.46,106.38L28.46,103.368L26.25,103.368L26.25,106.661C26.25,107.593 25.791,107.975 24.935,107.975L23.463,107.975L9.122,107.975L7.857,107.975C7.282,107.975 6.926,107.632 6.926,106.984L6.926,101.905L4.707,102.45L4.707,103.005C1.967,103.02 -0.012,103.938 0.036,106.529C0.055,107.975 1.29,109.354 2.857,109.434C3.954,109.5 4.66,108.942 5.01,108.544C5.35,109.385 6.083,110.154 7.664,110.154L25.564,110.154C26.577,110.154 27.429,109.695 27.817,109.007C28.248,109.591 28.972,110.154 30.169,110.154L33.188,110.154C35.943,110.154 36.16,107.794 36.16,106.86L36.16,99.528L33.94,99.528M4.707,106.316C4.707,107.363 4.101,107.889 3.372,107.87C2.445,107.859 2.137,106.921 2.151,106.361C2.194,104.84 3.574,104.359 4.707,104.359L4.707,106.316Z" style="fill:white;fill-rule:nonzero;"/>
        <path d="M38.222,106.415C38.222,108.516 39.899,110.154 42.098,110.154L43.32,110.154C42.949,111.039 41.796,111.055 41.407,111.055L41.376,111.055C40.85,111.055 40.324,110.939 39.945,110.828L40.523,112.778C40.869,112.874 41.427,112.961 41.872,112.961C43.541,112.961 45.653,112.156 45.653,109.581L45.653,102.857L42.098,102.857C39.733,102.857 38.222,104.359 38.222,106.415M43.424,107.975L42.033,107.975C41.062,107.975 40.505,107.235 40.505,106.415C40.505,105.66 41.062,104.825 42.033,104.825L43.424,104.825L43.424,107.975Z" style="fill:white;fill-rule:nonzero;"/>
        <rect x="57.984" y="99.528" width="2.243" height="1.895" style="fill:white;"/>
        <rect x="54.743" y="99.528" width="2.233" height="1.895" style="fill:white;"/>
        <rect x="65.673" y="111.085" width="2.229" height="1.894" style="fill:white;"/>
        <path d="M73.395,106.983C73.395,107.632 73.032,107.975 72.444,107.975L69.493,107.975C68.512,107.975 67.92,107.347 67.92,106.38L67.92,103.368L65.706,103.368L65.706,106.661C65.706,107.593 65.248,107.975 64.392,107.975L61.817,107.975C60.833,107.975 60.241,107.347 60.241,106.38L60.241,103.368L58.031,103.368L58.031,106.661C58.031,107.593 57.568,107.975 56.716,107.975L54.117,107.975C53.147,107.975 52.579,107.385 52.547,106.467L52.547,103.368L50.313,103.368L50.313,109.006C50.294,110.561 49.07,111.055 48.273,111.055C47.331,111.055 46.395,110.679 46.395,110.679L46.76,112.498C46.76,112.498 47.559,112.874 48.577,112.961C50.412,113.105 52.267,111.943 52.514,109.647C52.921,109.943 53.498,110.154 54.251,110.154L57.341,110.154C58.357,110.154 59.209,109.695 59.597,109.006C60.033,109.59 60.743,110.154 61.945,110.154L65.019,110.154C66.037,110.154 66.884,109.695 67.278,109.006C67.709,109.59 68.432,110.154 69.624,110.154L72.643,110.154C75.402,110.154 75.614,107.794 75.614,106.861L75.614,99.528L73.395,99.528" style="fill:white;fill-rule:nonzero;"/>
        <rect x="77.972" y="99.527" width="2.201" height="10.626" style="fill:white;"/>
        <rect x="90.966" y="99.639" width="1.822" height="1.591" style="fill:white;"/>
        <path d="M96.479,106.983C96.479,107.632 96.134,107.975 95.545,107.975L88.978,107.975C88.07,107.975 87.488,107.22 87.488,106.543C87.488,105.937 87.857,105.461 87.857,105.461C87.857,105.461 87.194,104.906 86.262,104.054C85.51,105.034 85.391,105.987 85.391,106.584C85.391,108.365 86.92,110.154 89.063,110.154L95.716,110.154C98.48,110.154 98.711,107.794 98.711,106.861L98.711,102.857L96.479,102.857" style="fill:white;fill-rule:nonzero;"/>
        <rect x="92.324" y="101.969" width="1.978" height="1.688" style="fill:white;"/>
        <rect x="89.461" y="101.969" width="1.969" height="1.688" style="fill:white;"/>
        <rect x="126.275" y="111.085" width="2.229" height="1.894" style="fill:white;"/>
        <path d="M134.008,106.983C134.008,107.632 133.648,107.975 133.052,107.975L130.096,107.975C129.11,107.975 128.527,107.348 128.527,106.379L128.527,103.368L126.309,103.368L126.309,106.661C126.309,107.593 125.849,107.975 124.997,107.975L121.085,107.975C121.085,104.839 118.549,102.427 115.558,102.427C113.589,102.427 111.431,103.543 111.379,106.072L113.457,106.072C113.561,104.853 114.465,104.399 115.558,104.399C117.612,104.399 118.875,105.937 118.851,107.975L108.209,107.975L108.209,102.857L104.655,102.857C102.286,102.857 100.774,104.359 100.774,106.415C100.774,108.516 102.456,110.154 104.655,110.154L105.881,110.154C105.493,111.072 104.281,111.055 103.931,111.055C103.407,111.055 102.876,110.939 102.506,110.828L103.079,112.778C103.372,112.861 103.833,112.945 104.229,112.961C105.802,113.009 107.868,112.368 108.162,110.154L125.619,110.154C126.64,110.154 127.482,109.695 127.886,109.006C128.307,109.591 129.029,110.154 130.227,110.154L133.251,110.154C135.995,110.154 136.217,107.794 136.217,106.86L136.217,99.528L134.008,99.528M105.981,107.975L104.584,107.975C103.614,107.975 103.062,107.235 103.062,106.415C103.062,105.66 103.614,104.825 104.584,104.825L105.981,104.825L105.981,107.975Z" style="fill:white;fill-rule:nonzero;"/>
        <rect x="138.58" y="99.527" width="2.195" height="10.626" style="fill:white;"/>
        <path d="M142.846,106.415C142.846,108.516 144.517,110.154 146.716,110.154L147.943,110.154C147.564,111.039 146.415,111.055 146.025,111.055L145.989,111.055C145.468,111.055 144.943,110.939 144.564,110.828L145.142,112.778C145.487,112.874 146.05,112.961 146.485,112.961C148.161,112.961 150.281,112.156 150.281,109.581L150.281,102.857L146.716,102.857C144.355,102.857 142.846,104.359 142.846,106.415M148.042,107.975L146.651,107.975C145.681,107.975 145.127,107.235 145.127,106.415C145.127,105.66 145.681,104.825 146.651,104.825L148.042,104.825L148.042,107.975Z" style="fill:white;fill-rule:nonzero;"/>
        <path d="M166.577,106.983C166.577,107.632 166.236,107.975 165.64,107.975L159.087,107.975C158.335,107.975 157.738,107.413 157.624,106.841C157.479,106.103 157.955,105.461 157.955,105.461C157.955,105.461 157.303,104.906 156.361,104.054C155.495,105.204 155.457,106.287 155.495,106.841C155.576,108.531 157.16,110.154 159.166,110.154L165.829,110.154C168.584,110.154 168.806,107.794 168.806,106.861L168.806,102.857L166.577,102.857" style="fill:white;fill-rule:nonzero;"/>
        <rect x="162.66" y="103.051" width="2.248" height="1.887" style="fill:white;"/>
        <rect x="159.413" y="103.051" width="2.248" height="1.887" style="fill:white;"/>
        <path d="M199.607,107.314C199.592,108.105 199.356,108.923 198.268,108.923C197.587,108.923 196.976,108.301 196.948,107.22L196.948,103.368L194.747,103.368L194.747,107.314C194.733,108.105 194.506,108.923 193.424,108.923C192.738,108.923 192.127,108.301 192.088,107.22L192.088,103.368L189.873,103.368L189.873,106.984C189.873,107.632 189.513,107.975 188.927,107.975L187.074,107.975L175.574,107.975L174.316,107.975C173.733,107.975 173.369,107.632 173.369,106.984L173.369,99.528L171.178,99.528L171.178,106.86C171.178,107.794 171.376,110.153 174.135,110.153L189.121,110.153C190.499,110.153 191.241,109.564 191.638,108.862C192.317,110.217 193.257,110.486 194.373,110.486C195.217,110.486 196.424,109.889 196.735,109.089C197.421,110.041 198.113,110.486 199.229,110.486C201.198,110.486 201.803,108.942 201.803,107.314L201.803,102.87L199.607,102.87" style="fill:white;fill-rule:nonzero;"/>
        <rect x="204.165" y="99.527" width="2.199" height="10.626" style="fill:white;"/>
        <path d="M211.031,109.006C211.006,110.561 209.78,111.055 208.991,111.055C208.035,111.055 207.103,110.679 207.103,110.679L207.467,112.498C207.467,112.498 208.267,112.874 209.289,112.961C211.272,113.12 213.26,111.772 213.26,109.089L213.26,102.843L211.031,102.843" style="fill:white;fill-rule:nonzero;"/>
        <path d="M234.747,106.983C234.747,107.632 234.392,107.975 233.796,107.975L230.844,107.975C229.863,107.975 229.268,107.347 229.268,106.38L229.268,99.528L227.058,99.528L227.058,106.661C227.058,107.593 226.599,107.975 225.742,107.975L221.952,107.975L221.952,105.512C221.952,103.543 220.803,102.661 218.705,102.661C217.75,102.661 215.758,103.006 215.673,105.119L217.75,105.119C217.83,104.399 218.365,104.203 218.739,104.203C219.686,104.203 219.686,104.968 219.686,104.968L219.686,107.975L215.328,107.975L215.328,110.154L226.366,110.154C227.384,110.154 228.241,109.695 228.624,109.006C229.06,109.59 229.779,110.154 230.976,110.154L233.994,110.154C236.748,110.154 236.971,107.794 236.971,106.861L236.971,99.528L234.747,99.528" style="fill:white;fill-rule:nonzero;"/>
        <path d="M253.253,98.849C253.529,98.821 253.765,98.709 253.955,98.543C254.171,98.787 254.446,98.849 254.716,98.849C255.142,98.849 255.681,98.588 255.875,97.921L255.875,96.587L255.09,96.587L255.09,97.921C255.004,98.037 254.858,98.086 254.749,98.086C254.513,98.086 254.404,97.921 254.404,97.543L254.404,96.587L253.618,96.587L253.618,97.921C253.529,98.037 253.381,98.086 253.272,98.086C253.031,98.086 252.923,97.921 252.923,97.543L252.923,96.587L252.12,96.587L252.12,97.641C252.119,98.513 252.761,98.887 253.253,98.849" style="fill:white;fill-rule:nonzero;"/>
        <path d="M258.961,106.984C258.961,107.632 258.595,107.975 258.004,107.975L256.816,107.975C255.828,107.975 255.236,107.348 255.236,106.38L255.236,99.528L253.03,99.528L253.03,106.661C253.03,107.593 252.572,107.975 251.71,107.975L250.006,107.975C249.429,107.975 249.07,107.632 249.07,106.984L249.07,101.905L246.86,102.45L246.86,103.005C244.12,103.02 242.133,103.938 242.181,106.529C242.195,107.975 243.444,109.354 245.006,109.434C246.103,109.5 246.808,108.942 247.15,108.544C247.49,109.385 248.237,110.154 249.804,110.154L252.331,110.154C253.352,110.154 254.204,109.695 254.593,109.007C255.028,109.591 255.742,110.154 256.948,110.154L258.202,110.154C260.956,110.154 261.175,107.794 261.175,106.86L261.175,99.528L258.961,99.528M246.861,106.316C246.861,107.363 246.25,107.889 245.528,107.87C244.594,107.859 244.277,106.921 244.296,106.361C244.343,104.84 245.72,104.359 246.861,104.359L246.861,106.316Z" style="fill:white;fill-rule:nonzero;"/>
        <rect x="263.541" y="99.527" width="2.2" height="10.626" style="fill:white;"/>
        <rect x="290.859" y="111.085" width="2.233" height="1.894" style="fill:white;"/>
        <path d="M299.599,106.562C299.599,105.331 300.162,104.596 301.075,104.596C301.899,104.596 302.386,104.938 302.452,105.921L304.654,105.921C304.654,103.728 303.115,102.426 301.194,102.426C298.492,102.426 297.317,104.494 297.317,106.583L297.317,107.975L294.677,107.975C293.699,107.975 293.102,107.348 293.102,106.38L293.102,103.368L290.886,103.368L290.886,106.661C290.886,107.593 290.428,107.975 289.582,107.975L288.096,107.975L276.602,107.975L274.435,107.975L274.435,105.512C274.435,103.543 273.283,102.661 271.185,102.661C270.233,102.661 268.236,103.006 268.15,105.119L270.233,105.119C270.319,104.399 270.843,104.203 271.221,104.203C272.177,104.203 272.177,104.967 272.177,104.967L272.177,107.975L267.804,107.975L267.804,110.153L290.201,110.153C291.214,110.153 292.071,109.695 292.464,109.006C292.889,109.591 293.618,110.153 294.806,110.153L304.913,110.153L304.913,107.975L299.599,107.975" style="fill:white;fill-rule:nonzero;"/>
        <path d="M318.952,103.843L318.153,103.098C318.019,103.413 317.66,103.382 317.632,103.382L316.558,103.382L316.558,102.842C316.558,102.475 316.638,102.182 316.993,102.182C317.168,102.182 317.419,102.279 317.443,102.625L318.626,102.625C318.556,101.482 318.01,100.968 316.993,100.968C315.83,100.968 315.364,101.872 315.364,102.842L315.364,103.382L314.713,103.382L314.329,104.624L317.561,104.624C318.01,104.624 318.679,104.432 318.952,103.843" style="fill:white;fill-rule:nonzero;"/>
        <path d="M362.774,106.983C362.774,107.632 362.415,107.974 361.828,107.974L358.837,107.974C358.132,107.974 357.854,107.466 357.769,106.86C357.74,104.986 356.397,103.006 353.888,103.006C351.366,103.006 349.998,105.024 349.998,106.983C349.96,107.795 349.326,107.974 349.029,107.974L346.885,107.974C345.895,107.974 345.298,107.348 345.298,106.38L345.298,99.527L343.09,99.527L343.09,106.662C343.09,107.593 342.636,107.974 341.78,107.974L340.308,107.974L325.964,107.974L325.023,107.974C324.019,107.974 323.448,107.348 323.448,106.38L323.448,99.527L321.223,99.527L321.223,106.983C321.223,107.632 320.874,107.974 320.287,107.974L313.727,107.974C312.966,107.974 312.384,107.414 312.266,106.841C312.119,106.103 312.592,105.462 312.592,105.462C312.592,105.462 311.939,104.906 310.997,104.055C310.136,105.204 310.098,106.288 310.136,106.841C310.211,108.531 311.807,110.154 313.803,110.154L320.471,110.154C321.696,110.154 322.421,109.683 322.847,109.089C323.292,109.648 323.991,110.154 325.156,110.154L342.403,110.154C343.42,110.154 344.271,109.695 344.661,109.006C345.091,109.59 345.814,110.154 347.016,110.154L349.16,110.154C349.914,110.154 350.528,109.943 350.946,109.648C351.607,110.451 352.586,111.039 353.888,111.039C355.284,111.039 356.326,110.352 356.968,109.416C357.493,109.823 358.204,110.154 358.955,110.154L362.022,110.154C364.777,110.154 364.998,107.795 364.998,106.86L364.998,99.527L362.774,99.527M353.888,109.155C352.685,109.155 352.28,108.213 352.28,106.907C352.28,105.743 352.685,104.787 353.888,104.787C355.1,104.787 355.492,105.743 355.492,106.907C355.492,108.213 355.1,109.155 353.888,109.155" style="fill:white;fill-rule:nonzero;"/>
        <rect x="367.36" y="99.527" width="2.191" height="10.626" style="fill:white;"/>
        <rect x="374.199" y="100.072" width="2.229" height="1.888" style="fill:white;"/>
        <path d="M399.671,102.661L394.873,102.661C395.213,102.121 395.905,101.64 397.196,101.64L399.637,101.64L399.637,99.528L397.035,99.528C394.299,99.528 392.024,101.513 392.024,104.84L399.671,104.84C400.65,104.84 401.265,105.562 401.265,106.434C401.265,107.288 400.513,107.974 399.671,107.974L390.495,107.974L378.988,107.974L378.023,107.974C377.047,107.974 376.485,107.385 376.443,106.467L376.443,103.367L374.213,103.367L374.213,109.006C374.199,110.561 372.964,111.055 372.178,111.055C371.226,111.055 370.289,110.679 370.289,110.679L370.655,112.498C370.655,112.498 371.459,112.875 372.477,112.961C374.307,113.105 376.163,111.943 376.413,109.647C376.83,109.943 377.397,110.154 378.151,110.154L399.671,110.154C401.909,110.154 403.542,108.516 403.542,106.434C403.542,104.36 402.052,102.661 399.671,102.661" style="fill:white;fill-rule:nonzero;"/>
        <path d="M419.654,102.301C417.132,102.301 415.835,104.316 415.835,106.202L415.835,106.961C415.835,107.593 415.485,107.975 414.899,107.975L412.013,107.975C411.042,107.975 410.47,107.386 410.44,106.468L410.44,103.368L408.206,103.368L408.206,109.006C408.188,110.561 406.959,111.055 406.173,111.055C405.217,111.055 404.294,110.679 404.294,110.679L404.645,112.498C404.645,112.498 405.448,112.874 406.475,112.962C408.302,113.104 410.157,111.942 410.403,109.647C410.815,109.943 411.387,110.153 412.134,110.153L414.998,110.153C415.982,110.153 416.655,109.657 416.952,109.283C417.543,109.813 418.391,110.333 419.654,110.333C422.18,110.333 423.544,108.105 423.544,106.202C423.543,104.316 422.179,102.301 419.654,102.301M419.654,108.45C418.509,108.45 418.098,107.364 418.098,106.202C418.098,105.154 418.509,104.085 419.654,104.085C420.856,104.085 421.274,105.034 421.274,106.202C421.273,107.515 420.855,108.45 419.654,108.45" style="fill:white;fill-rule:nonzero;"/>
    </g>
</svg>
